<svg width="362" height="211" viewBox="0 0 362 211" fill="none" xmlns="http://www.w3.org/2000/svg">
<rect width="362" height="211" fill="#E5E5E5"/>
<rect width="362" height="211" rx="10" fill="#767D9F"/>
<g clip-path="url(#clip0)">
<path opacity="0.2" d="M84.1998 50.753H77.1087V57.8193H84.1998V50.753Z" fill="black"/>
<path opacity="0.2" d="M93.8899 50.753H86.7988V57.8193H93.8899V50.753Z" fill="black"/>
<path opacity="0.2" d="M103.583 50.753H96.4917V57.8193H103.583V50.753Z" fill="black"/>
<path opacity="0.2" d="M113.273 50.753H106.182V57.8193H113.273V50.753Z" fill="black"/>
<path opacity="0.2" d="M122.966 50.753H115.875V57.8193H122.966V50.753Z" fill="black"/>
<path d="M132.659 50.753H125.568V57.8193H132.659V50.753Z" fill="black"/>
<path opacity="0.2" d="M142.349 50.753H135.258V57.8193H142.349V50.753Z" fill="black"/>
<path opacity="0.2" d="M152.042 50.753H144.951V57.8193H152.042V50.753Z" fill="black"/>
<path opacity="0.2" d="M161.732 50.753H154.641V57.8193H161.732V50.753Z" fill="black"/>
<path d="M171.425 50.753H164.334V57.8193H171.425V50.753Z" fill="black"/>
<path opacity="0.2" d="M181.117 50.753H174.026V57.8193H181.117V50.753Z" fill="black"/>
<path opacity="0.2" d="M190.808 50.753H183.717V57.8193H190.808V50.753Z" fill="black"/>
<path opacity="0.2" d="M200.5 50.753H193.409V57.8193H200.5V50.753Z" fill="black"/>
<path opacity="0.2" d="M210.193 50.753H203.102V57.8193H210.193V50.753Z" fill="black"/>
<path opacity="0.2" d="M219.883 50.753H212.792V57.8193H219.883V50.753Z" fill="black"/>
<path opacity="0.2" d="M229.576 50.753H222.485V57.8193H229.576V50.753Z" fill="black"/>
<path d="M239.266 50.753H232.175V57.8193H239.266V50.753Z" fill="black"/>
<path d="M248.959 50.753H241.868V57.8193H248.959V50.753Z" fill="black"/>
<path opacity="0.2" d="M258.652 50.753H251.561V57.8193H258.652V50.753Z" fill="black"/>
<path opacity="0.2" d="M268.342 50.753H261.251V57.8193H268.342V50.753Z" fill="black"/>
<path d="M278.035 50.753H270.944V57.8193H278.035V50.753Z" fill="black"/>
<path d="M287.725 50.753H280.634V57.8193H287.725V50.753Z" fill="black"/>
<path d="M84.1998 59.7029H77.1087V66.7693H84.1998V59.7029Z" fill="black"/>
<path opacity="0.2" d="M93.8899 59.7029H86.7988V66.7693H93.8899V59.7029Z" fill="black"/>
<path opacity="0.7" d="M103.583 59.7029H96.4917V66.7693H103.583V59.7029Z" fill="black"/>
<path opacity="0.2" d="M113.273 59.7029H106.182V66.7693H113.273V59.7029Z" fill="black"/>
<path opacity="0.4" d="M122.966 59.7029H115.875V66.7693H122.966V59.7029Z" fill="black"/>
<path d="M132.659 59.7029H125.568V66.7693H132.659V59.7029Z" fill="black"/>
<path opacity="0.4" d="M142.349 59.7029H135.258V66.7693H142.349V59.7029Z" fill="black"/>
<path opacity="0.2" d="M152.042 59.7029H144.951V66.7693H152.042V59.7029Z" fill="black"/>
<path opacity="0.4" d="M161.732 59.7029H154.641V66.7693H161.732V59.7029Z" fill="black"/>
<path d="M171.425 59.7029H164.334V66.7693H171.425V59.7029Z" fill="black"/>
<path opacity="0.4" d="M181.117 59.7029H174.026V66.7693H181.117V59.7029Z" fill="black"/>
<path opacity="0.4" d="M190.808 59.7029H183.717V66.7693H190.808V59.7029Z" fill="black"/>
<path opacity="0.2" d="M200.5 59.7029H193.409V66.7693H200.5V59.7029Z" fill="black"/>
<path opacity="0.4" d="M210.193 59.7029H203.102V66.7693H210.193V59.7029Z" fill="black"/>
<path opacity="0.4" d="M219.883 59.7029H212.792V66.7693H219.883V59.7029Z" fill="black"/>
<path opacity="0.2" d="M229.576 59.7029H222.485V66.7693H229.576V59.7029Z" fill="black"/>
<path opacity="0.2" d="M239.266 59.7029H232.175V66.7693H239.266V59.7029Z" fill="black"/>
<path opacity="0.4" d="M248.959 59.7029H241.868V66.7693H248.959V59.7029Z" fill="black"/>
<path opacity="0.2" d="M258.652 59.7029H251.561V66.7693H258.652V59.7029Z" fill="black"/>
<path d="M268.342 59.7029H261.251V66.7693H268.342V59.7029Z" fill="black"/>
<path d="M278.035 59.7029H270.944V66.7693H278.035V59.7029Z" fill="black"/>
<path d="M287.725 59.7029H280.634V66.7693H287.725V59.7029Z" fill="black"/>
<path d="M84.1998 68.6557H77.1087V75.7221H84.1998V68.6557Z" fill="black"/>
<path opacity="0.7" d="M93.8899 68.6557H86.7988V75.7221H93.8899V68.6557Z" fill="black"/>
<path opacity="0.7" d="M103.583 68.6557H96.4917V75.7221H103.583V68.6557Z" fill="black"/>
<path opacity="0.2" d="M113.273 68.6557H106.182V75.7221H113.273V68.6557Z" fill="black"/>
<path opacity="0.4" d="M122.966 68.6557H115.875V75.7221H122.966V68.6557Z" fill="black"/>
<path opacity="0.4" d="M132.659 68.6557H125.568V75.7221H132.659V68.6557Z" fill="black"/>
<path d="M142.349 68.6557H135.258V75.7221H142.349V68.6557Z" fill="black"/>
<path opacity="0.2" d="M152.042 68.6557H144.951V75.7221H152.042V68.6557Z" fill="black"/>
<path opacity="0.4" d="M161.732 68.6557H154.641V75.7221H161.732V68.6557Z" fill="black"/>
<path d="M171.425 68.6557H164.334V75.7221H171.425V68.6557Z" fill="black"/>
<path opacity="0.2" d="M181.117 68.6557H174.026V75.7221H181.117V68.6557Z" fill="black"/>
<path opacity="0.4" d="M190.808 68.6557H183.717V75.7221H190.808V68.6557Z" fill="black"/>
<path opacity="0.2" d="M200.5 68.6557H193.409V75.7221H200.5V68.6557Z" fill="black"/>
<path d="M210.193 68.6557H203.102V75.7221H210.193V68.6557Z" fill="black"/>
<path opacity="0.2" d="M219.883 68.6557H212.792V75.7221H219.883V68.6557Z" fill="black"/>
<path opacity="0.7" d="M229.576 68.6557H222.485V75.7221H229.576V68.6557Z" fill="black"/>
<path opacity="0.7" d="M239.266 68.6557H232.175V75.7221H239.266V68.6557Z" fill="black"/>
<path opacity="0.4" d="M248.959 68.6557H241.868V75.7221H248.959V68.6557Z" fill="black"/>
<path opacity="0.2" d="M258.652 68.6557H251.561V75.7221H258.652V68.6557Z" fill="black"/>
<path d="M268.342 68.6557H261.251V75.7221H268.342V68.6557Z" fill="black"/>
<path d="M278.035 68.6557H270.944V75.7221H278.035V68.6557Z" fill="black"/>
<path d="M287.725 68.6557H280.634V75.7221H287.725V68.6557Z" fill="black"/>
<path d="M84.1998 77.6057H77.1087V84.6721H84.1998V77.6057Z" fill="black"/>
<path opacity="0.7" d="M93.8899 77.6057H86.7988V84.6721H93.8899V77.6057Z" fill="black"/>
<path opacity="0.7" d="M103.583 77.6057H96.4917V84.6721H103.583V77.6057Z" fill="black"/>
<path opacity="0.2" d="M113.273 77.6057H106.182V84.6721H113.273V77.6057Z" fill="black"/>
<path opacity="0.2" d="M122.966 77.6057H115.875V84.6721H122.966V77.6057Z" fill="black"/>
<path opacity="0.4" d="M132.659 77.6057H125.568V84.6721H132.659V77.6057Z" fill="black"/>
<path opacity="0.4" d="M142.349 77.6057H135.258V84.6721H142.349V77.6057Z" fill="black"/>
<path d="M152.042 77.6057H144.951V84.6721H152.042V77.6057Z" fill="black"/>
<path opacity="0.2" d="M161.732 77.6057H154.641V84.6721H161.732V77.6057Z" fill="black"/>
<path opacity="0.4" d="M171.425 77.6057H164.334V84.6721H171.425V77.6057Z" fill="black"/>
<path opacity="0.4" d="M181.117 77.6057H174.026V84.6721H181.117V77.6057Z" fill="black"/>
<path opacity="0.4" d="M190.808 77.6057H183.717V84.6721H190.808V77.6057Z" fill="black"/>
<path opacity="0.4" d="M200.5 77.6057H193.409V84.6721H200.5V77.6057Z" fill="black"/>
<path opacity="0.2" d="M210.193 77.6057H203.102V84.6721H210.193V77.6057Z" fill="black"/>
<path opacity="0.2" d="M219.883 77.6057H212.792V84.6721H219.883V77.6057Z" fill="black"/>
<path opacity="0.2" d="M229.576 77.6057H222.485V84.6721H229.576V77.6057Z" fill="black"/>
<path opacity="0.2" d="M239.266 77.6057H232.175V84.6721H239.266V77.6057Z" fill="black"/>
<path opacity="0.7" d="M248.959 77.6057H241.868V84.6721H248.959V77.6057Z" fill="black"/>
<path opacity="0.7" d="M258.652 77.6057H251.561V84.6721H258.652V77.6057Z" fill="black"/>
<path opacity="0.4" d="M268.342 77.6057H261.251V84.6721H268.342V77.6057Z" fill="black"/>
<path opacity="0.2" d="M278.035 77.6057H270.944V84.6721H278.035V77.6057Z" fill="black"/>
<path d="M287.725 77.6057H280.634V84.6721H287.725V77.6057Z" fill="black"/>
<path opacity="0.2" d="M84.1998 86.5585H77.1087V93.6248H84.1998V86.5585Z" fill="black"/>
<path opacity="0.7" d="M93.8899 86.5585H86.7988V93.6248H93.8899V86.5585Z" fill="black"/>
<path opacity="0.7" d="M103.583 86.5585H96.4917V93.6248H103.583V86.5585Z" fill="black"/>
<path opacity="0.2" d="M113.273 86.5585H106.182V93.6248H113.273V86.5585Z" fill="black"/>
<path opacity="0.2" d="M122.966 86.5585H115.875V93.6248H122.966V86.5585Z" fill="black"/>
<path opacity="0.4" d="M132.659 86.5585H125.568V93.6248H132.659V86.5585Z" fill="black"/>
<path d="M142.349 86.5585H135.258V93.6248H142.349V86.5585Z" fill="black"/>
<path opacity="0.2" d="M152.042 86.5585H144.951V93.6248H152.042V86.5585Z" fill="black"/>
<path d="M161.732 86.5585H154.641V93.6248H161.732V86.5585Z" fill="black"/>
<path d="M171.425 86.5585H164.334V93.6248H171.425V86.5585Z" fill="black"/>
<path d="M181.117 86.5585H174.026V93.6248H181.117V86.5585Z" fill="black"/>
<path opacity="0.2" d="M190.808 86.5585H183.717V93.6248H190.808V86.5585Z" fill="black"/>
<path d="M200.5 86.5585H193.409V93.6248H200.5V86.5585Z" fill="black"/>
<path opacity="0.2" d="M210.193 86.5585H203.102V93.6248H210.193V86.5585Z" fill="black"/>
<path opacity="0.2" d="M219.883 86.5585H212.792V93.6248H219.883V86.5585Z" fill="black"/>
<path opacity="0.2" d="M229.576 86.5585H222.485V93.6248H229.576V86.5585Z" fill="black"/>
<path opacity="0.2" d="M239.266 86.5585H232.175V93.6248H239.266V86.5585Z" fill="black"/>
<path opacity="0.2" d="M248.959 86.5585H241.868V93.6248H248.959V86.5585Z" fill="black"/>
<path opacity="0.7" d="M258.652 86.5585H251.561V93.6248H258.652V86.5585Z" fill="black"/>
<path opacity="0.2" d="M268.342 86.5585H261.251V93.6248H268.342V86.5585Z" fill="black"/>
<path opacity="0.2" d="M278.035 86.5585H270.944V93.6248H278.035V86.5585Z" fill="black"/>
<path d="M287.725 86.5585H280.634V93.6248H287.725V86.5585Z" fill="black"/>
<path opacity="0.2" d="M84.1998 95.5085H77.1087V102.575H84.1998V95.5085Z" fill="black"/>
<path opacity="0.2" d="M93.8899 95.5085H86.7988V102.575H93.8899V95.5085Z" fill="black"/>
<path opacity="0.7" d="M103.583 95.5085H96.4917V102.575H103.583V95.5085Z" fill="black"/>
<path opacity="0.2" d="M113.273 95.5085H106.182V102.575H113.273V95.5085Z" fill="black"/>
<path opacity="0.2" d="M122.966 95.5085H115.875V102.575H122.966V95.5085Z" fill="black"/>
<path opacity="0.2" d="M132.659 95.5085H125.568V102.575H132.659V95.5085Z" fill="black"/>
<path d="M142.349 95.5085H135.258V102.575H142.349V95.5085Z" fill="black"/>
<path opacity="0.2" d="M152.042 95.5085H144.951V102.575H152.042V95.5085Z" fill="black"/>
<path d="M161.732 95.5085H154.641V102.575H161.732V95.5085Z" fill="black"/>
<path d="M171.425 95.5085H164.334V102.575H171.425V95.5085Z" fill="black"/>
<path opacity="0.2" d="M181.117 95.5085H174.026V102.575H181.117V95.5085Z" fill="black"/>
<path opacity="0.2" d="M190.808 95.5085H183.717V102.575H190.808V95.5085Z" fill="black"/>
<path opacity="0.2" d="M200.5 95.5085H193.409V102.575H200.5V95.5085Z" fill="black"/>
<path opacity="0.2" d="M210.193 95.5085H203.102V102.575H210.193V95.5085Z" fill="black"/>
<path opacity="0.2" d="M219.883 95.5085H212.792V102.575H219.883V95.5085Z" fill="black"/>
<path opacity="0.2" d="M229.576 95.5085H222.485V102.575H229.576V95.5085Z" fill="black"/>
<path opacity="0.2" d="M239.266 95.5085H232.175V102.575H239.266V95.5085Z" fill="black"/>
<path opacity="0.2" d="M248.959 95.5085H241.868V102.575H248.959V95.5085Z" fill="black"/>
<path opacity="0.2" d="M258.652 95.5085H251.561V102.575H258.652V95.5085Z" fill="black"/>
<path opacity="0.2" d="M268.342 95.5085H261.251V102.575H268.342V95.5085Z" fill="black"/>
<path opacity="0.4" d="M278.035 95.5085H270.944V102.575H278.035V95.5085Z" fill="black"/>
<path d="M287.725 95.5085H280.634V102.575H287.725V95.5085Z" fill="black"/>
<path opacity="0.7" d="M84.1998 104.461H77.1087V111.528H84.1998V104.461Z" fill="black"/>
<path opacity="0.2" d="M93.8899 104.461H86.7988V111.528H93.8899V104.461Z" fill="black"/>
<path opacity="0.2" d="M103.583 104.461H96.4917V111.528H103.583V104.461Z" fill="black"/>
<path opacity="0.2" d="M113.273 104.461H106.182V111.528H113.273V104.461Z" fill="black"/>
<path opacity="0.2" d="M122.966 104.461H115.875V111.528H122.966V104.461Z" fill="black"/>
<path opacity="0.2" d="M132.659 104.461H125.568V111.528H132.659V104.461Z" fill="black"/>
<path opacity="0.2" d="M142.349 104.461H135.258V111.528H142.349V104.461Z" fill="black"/>
<path d="M152.042 104.461H144.951V111.528H152.042V104.461Z" fill="black"/>
<path opacity="0.2" d="M161.732 104.461H154.641V111.528H161.732V104.461Z" fill="black"/>
<path opacity="0.2" d="M171.425 104.461H164.334V111.528H171.425V104.461Z" fill="black"/>
<path opacity="0.2" d="M181.117 104.461H174.026V111.528H181.117V104.461Z" fill="black"/>
<path d="M190.808 104.461H183.717V111.528H190.808V104.461Z" fill="black"/>
<path opacity="0.2" d="M200.5 104.461H193.409V111.528H200.5V104.461Z" fill="black"/>
<path opacity="0.2" d="M210.193 104.461H203.102V111.528H210.193V104.461Z" fill="black"/>
<path opacity="0.2" d="M219.883 104.461H212.792V111.528H219.883V104.461Z" fill="black"/>
<path opacity="0.2" d="M229.576 104.461H222.485V111.528H229.576V104.461Z" fill="black"/>
<path opacity="0.2" d="M239.266 104.461H232.175V111.528H239.266V104.461Z" fill="black"/>
<path opacity="0.2" d="M248.959 104.461H241.868V111.528H248.959V104.461Z" fill="black"/>
<path opacity="0.2" d="M258.652 104.461H251.561V111.528H258.652V104.461Z" fill="black"/>
<path opacity="0.2" d="M268.342 104.461H261.251V111.528H268.342V104.461Z" fill="black"/>
<path opacity="0.2" d="M278.035 104.461H270.944V111.528H278.035V104.461Z" fill="black"/>
<path d="M287.725 104.461H280.634V111.528H287.725V104.461Z" fill="black"/>
<path d="M213.176 130.458C218.529 130.458 222.869 126.133 222.869 120.799C222.869 115.464 218.529 111.14 213.176 111.14C207.823 111.14 203.483 115.464 203.483 120.799C203.483 126.133 207.823 130.458 213.176 130.458Z" fill="#767D9F"/>
<path d="M212.673 108.511C213.64 112.718 214.461 116.956 215.136 121.226C215.339 122.494 215.519 123.832 215.058 125.032C214.671 126.032 213.885 126.813 213.268 127.688C212.651 128.563 212.184 129.685 212.559 130.688C212.934 131.691 214.029 132.239 215.075 132.522C218.066 133.325 221.254 132.741 224.231 131.871C225.579 131.525 226.871 130.992 228.07 130.286C229.332 129.489 230.366 128.381 231.316 127.239C235.656 121.996 238.497 115.702 241.171 109.447C239.452 109.603 237.722 109.349 236.121 108.707C234.521 108.064 233.097 107.051 231.967 105.752C230.872 104.47 230.068 102.683 230.685 101.115C228.876 102.104 226.727 102.17 224.779 102.846C223.57 103.306 222.407 103.877 221.304 104.55C219.973 105.316 218.65 106.097 217.334 106.893C215.831 107.796 214.421 108.6 212.673 108.511Z" fill="#FFB8B8"/>
<path d="M232.945 115.763C231.247 119.057 229.037 122.223 225.882 124.184C222.727 126.145 218.48 126.677 215.319 124.738C213.763 123.791 212.584 122.35 211.225 121.137C209.865 119.924 208.167 118.885 206.341 119.043C204.328 119.217 202.752 120.782 201.404 122.281C199.358 124.558 197.382 126.932 195.933 129.627C193.154 134.807 192.495 140.862 192.617 146.735C192.74 152.607 193.593 158.449 193.612 164.322C193.64 171.546 192.412 178.712 191.169 185.828C202.594 184.427 214.032 187.49 225.482 188.651C232.809 189.402 240.192 189.385 247.558 189.366C248.854 189.366 250.232 189.332 251.311 188.618C251.97 188.139 252.503 187.507 252.865 186.778C253.882 184.909 254.291 182.776 254.574 180.668C255.294 175.344 255.317 169.953 255.336 164.579C255.386 151.56 255.433 138.494 253.774 125.577C253.365 122.4 252.843 119.206 251.62 116.234C250.396 113.262 248.401 110.528 245.61 108.935C243.817 107.91 239.661 106.126 237.549 107.159C235.177 108.312 234.082 113.558 232.945 115.763Z" fill="#2E2D3A"/>
<path d="M233.79 152.527C233.36 144.494 231.606 135.921 235.339 128.79C236.256 127.04 232.965 124.854 233.982 123.159C235.224 121.092 236.165 118.86 236.779 116.53C236.99 115.73 237.159 114.882 236.959 114.079C236.59 112.613 235.136 111.741 233.902 110.849C232.54 109.863 231.839 106.857 231.4 105.231C230.961 103.605 234.894 105.564 236.476 104.985C238.672 104.184 241.462 104.688 243.653 105.5C244.876 105.949 246.205 105.988 247.508 106.021C250.041 106.087 252.581 106.151 255.094 105.841C256.223 105.699 257.354 105.486 258.488 105.55C261.382 105.713 263.898 107.686 265.61 110.018C267.322 112.35 268.412 115.068 269.816 117.594C270.986 119.699 272.381 121.688 273.379 123.879C274.263 125.818 274.822 127.901 275.375 129.973L276.801 135.289C277.05 136.049 277.169 136.846 277.151 137.646C277.079 138.497 276.701 139.289 276.317 140.045C274.867 142.848 273.128 145.493 271.128 147.937C268.128 151.602 264.487 154.906 262.705 159.294C262.01 161.003 261.624 162.82 261.271 164.632C259.847 171.878 258.836 179.198 258.241 186.557C254.993 185.059 251.588 183.925 248.089 183.175C246.345 182.803 244.582 182.525 242.808 182.344C241.254 182.183 239.25 182.488 237.771 182.067C235.297 181.366 235.025 177.197 234.649 175.014C234.049 171.538 233.929 168 233.907 164.488C233.879 160.494 234.004 156.507 233.79 152.527Z" fill="#1E1D27"/>
<path d="M179.461 137.505C180.631 144.153 181.921 150.821 184.464 157.067C184.4 157.128 184.336 157.183 184.272 157.239C184.047 157.43 183.814 157.61 183.569 157.793C182.999 158.192 182.374 158.53 181.901 159.05C181.722 159.25 181.581 159.48 181.484 159.729C181.397 159.924 181.352 160.135 181.352 160.348C181.352 160.562 181.397 160.772 181.484 160.967C180.158 161.552 178.619 161.372 177.131 161.316C175.85 161.269 174.607 161.316 173.579 162.017C172.15 162.998 171.719 164.881 171.489 166.593C171.403 167.217 171.33 167.843 171.269 168.469C171.21 169.05 171.161 169.634 171.124 170.219C170.998 172.156 170.981 174.098 171.072 176.036C171.086 176.391 171.106 176.745 171.13 177.1C166.588 176.992 162.449 174.632 158.532 172.338C157.637 171.815 156.714 171.264 156.133 170.399C155.598 169.55 155.371 168.544 155.491 167.549C155.491 167.408 155.516 167.272 155.536 167.128C155.66 166.306 155.874 165.5 156.172 164.723C157.398 161.417 159.204 158.355 161.507 155.679C162.502 154.521 163.622 153.388 164.086 151.934C164.289 151.3 164.364 150.627 164.57 149.995C165.493 147.258 168.823 145.965 169.962 143.308C170.24 142.674 170.368 141.979 170.713 141.369C171.023 140.863 171.424 140.417 171.894 140.053C172.097 139.884 172.309 139.721 172.517 139.558C174.47 138.032 176.352 136.421 178.163 134.724C178.5 134.408 178.833 134.089 179.163 133.765C179.119 135.019 179.219 136.274 179.461 137.505Z" fill="#1E1D27"/>
<path d="M207.472 117.843C207.072 118.264 206.638 118.66 206.213 119.054L206.099 119.156L205.649 119.572C204.831 120.275 204.124 121.095 203.55 122.007L203.503 122.084C202.085 124.613 202.61 127.727 203.005 130.599C203.495 134.179 203.715 137.79 203.664 141.402C203.592 146.389 203.002 151.341 202.991 156.322C202.991 157.452 203.016 158.579 203.066 159.71C203.147 161.546 203.286 163.38 203.453 165.214C203.633 167.225 203.85 169.233 204.053 171.241C204.214 172.795 204.367 174.347 204.495 175.898C204.559 176.701 204.62 177.502 204.67 178.305C204.728 179.247 204.776 180.191 204.804 181.133C204.823 181.731 204.834 182.327 204.834 182.925C204.834 183.266 204.834 183.604 204.834 183.942C204.834 184.59 204.816 185.236 204.781 185.881C204.744 186.71 204.688 187.541 204.612 188.374C204.526 189.28 204.373 190.269 203.733 190.906C203.694 190.945 203.653 190.981 203.611 191.017L202.71 190.906C196.502 190.165 190.234 190.054 184.003 190.573C184.139 189.637 184.264 188.704 184.386 187.765C184.442 187.321 184.498 186.875 184.55 186.429C184.612 185.92 184.67 185.41 184.726 184.9C184.79 184.346 184.848 183.792 184.903 183.238C185.048 181.811 185.175 180.382 185.284 178.953C185.446 176.868 185.568 174.78 185.651 172.687C185.692 171.688 185.724 170.688 185.746 169.687C185.777 168.446 185.792 167.204 185.79 165.962C185.79 164.754 185.78 163.544 185.76 162.333C185.76 161.934 185.743 161.535 185.71 161.139C185.686 160.782 185.636 160.428 185.562 160.078C185.356 159.272 185.077 158.485 184.728 157.729C184.667 157.585 184.609 157.452 184.55 157.3C184.517 157.225 184.487 157.147 184.456 157.073C186.057 155.652 187.197 153.749 188.292 151.876C190.068 148.859 191.886 145.71 192.184 142.225C192.481 138.74 190.744 134.826 187.402 133.763C186.493 133.486 185.532 133.408 184.595 133.245C183.711 133.09 181.868 132.738 180.845 132.106C180.289 132.675 179.733 133.234 179.177 133.782C179.211 132.945 179.416 132.124 179.78 131.369L180.175 131.389C180.143 131.3 180.128 131.206 180.131 131.112C180.131 130.815 180.336 130.48 180.776 130.109C182.085 129.001 184.145 128.754 184.97 127.256C185.315 126.633 185.373 125.89 185.651 125.237C186.449 123.372 188.739 122.685 190.118 121.195C191.497 119.705 191.842 117.594 192.956 115.932C193.789 114.718 194.944 113.759 196.292 113.162C196.403 113.109 196.517 113.057 196.631 113.01C198.938 112.026 201.679 111.802 204.07 111.807C204.998 111.807 207.405 111.835 208.584 112.303C208.775 112.371 208.95 112.478 209.098 112.616C210.355 113.979 208.4 116.857 207.472 117.843Z" fill="#1E1D27"/>
<path d="M179.875 131.175C182.022 130.531 184.277 130.319 186.507 130.55C188.737 130.782 190.899 131.453 192.867 132.524C194.869 133.632 196.664 135.178 197.765 137.173C199.419 140.164 199.347 143.771 199.23 147.186C199.172 148.895 199.097 150.665 198.341 152.2C197.465 153.976 195.814 155.194 194.129 156.192C193.074 156.863 191.918 157.361 190.705 157.668C188.837 158.073 186.897 157.729 185.015 157.391C182.969 157.014 180.773 156.56 179.352 155.042C178.518 154.161 178.063 153.017 177.612 151.898C176.966 150.282 176.317 148.668 175.666 147.056C174.541 144.256 174.16 141.926 175.647 139.198C176.322 137.954 177.148 136.79 177.815 135.538C178.149 134.901 179.344 131.339 179.875 131.175Z" fill="#1E1D27"/>
<path d="M296.701 179.061V187.344C290.999 189.704 284.882 190.909 278.708 190.889H203.742C203.703 190.928 203.661 190.964 203.619 191L202.719 190.889H69.3672C58.1788 190.889 47.8105 187.881 39.3073 182.756V170.111L103.441 162.734H103.491L140.839 165.887L150.504 166.718L155.525 167.142L165.915 168.02L171.261 168.471L179.044 169.131L180.139 169.222L185.748 169.696L193.359 170.319L204.061 171.222L221.902 172.732L234.452 173.792L255.061 175.535L258.98 175.864L259.403 175.901L259.77 175.931L264.946 176.369L270.627 176.851L271.286 176.906L296.701 179.061Z" fill="#504F60"/>
<path d="M221.371 178.756L140.998 165.086L137.882 180.79L174.724 185.186L186.068 186.601L217.273 180.477L221.371 178.756Z" fill="#9C9CA1"/>
<path d="M179.767 185.814L220.034 178.272C220.235 178.233 220.442 178.24 220.641 178.291C220.84 178.342 221.025 178.436 221.182 178.566C221.34 178.697 221.467 178.86 221.554 179.046C221.641 179.231 221.685 179.433 221.685 179.637C221.686 179.962 221.572 180.276 221.365 180.525C221.157 180.775 220.868 180.944 220.548 181.003L181.223 188.341L179.767 185.814Z" fill="#9C9CA1"/>
<path d="M197.234 162.095C198.488 161.978 199.758 161.782 200.887 161.228C202.277 160.538 203.358 159.35 204.645 158.474C207.475 156.535 211.261 156.275 214.505 157.388C217.749 158.502 220.456 160.887 222.352 163.734C223.611 165.632 224.556 168.053 223.667 170.147C223.361 170.787 222.977 171.387 222.521 171.931L220.203 174.95C219.763 175.585 219.233 176.153 218.63 176.637C217.763 177.266 216.684 177.524 215.622 177.679C212.801 178.089 209.929 177.856 207.086 178.045C202.202 178.369 197.432 179.936 192.537 179.884C189.724 179.853 186.947 179.288 184.197 178.723L172.031 176.23C169.912 175.798 167.519 175.166 166.521 173.252C166.074 172.391 165.99 171.394 165.937 170.424C165.793 167.754 165.937 164.784 167.794 162.859C169.54 161.053 172.3 160.482 174.385 159.147C176.937 157.51 177.779 158.039 180.47 159.269C185.719 161.638 191.495 162.612 197.234 162.095Z" fill="#FFB8B8"/>
<path d="M246.093 158.297C242.68 159.613 239.247 160.934 235.672 161.718C229.679 163.034 223.408 162.826 217.462 164.33C214.321 165.128 211.2 166.413 207.972 166.153C206.53 166.036 205.137 165.599 203.733 165.266C195.847 163.327 186.883 163.956 180.478 168.942C178.288 170.646 176.495 172.77 174.869 175.036C174.521 175.526 174.286 176.086 174.18 176.676C174.074 177.267 174.101 177.873 174.258 178.452C174.415 179.031 174.698 179.569 175.088 180.026C175.477 180.483 175.964 180.849 176.512 181.097C179.002 182.239 181.67 182.948 184.4 183.194C188.05 183.515 191.717 183 195.347 182.485C200.734 181.723 206.124 180.959 211.497 180.103C213.426 179.795 215.355 179.477 217.296 179.233C231.258 177.474 245.474 179.612 259.472 178.144C260.887 177.995 262.327 177.801 263.614 177.2C266.872 175.676 268.484 171.66 267.811 168.131C267.139 164.602 264.542 161.668 261.418 159.868C258.8 158.352 255.975 157.74 253.059 157.098C250.352 156.469 248.701 157.3 246.093 158.297Z" fill="#FFB8B8"/>
<path opacity="0.1" d="M276.039 137.2C277.579 139.211 277.907 141.909 277.741 144.427C277.574 146.945 276.973 149.436 276.884 151.965C276.762 155.433 277.602 158.89 277.46 162.347C277.36 164.765 276.784 167.136 276.103 169.457C275.3 172.197 274.138 175.142 271.6 176.457C268.231 178.205 261.165 177.222 257.621 178.59C257.943 176.587 261.034 173.687 261.357 171.685C261.579 170.299 261.804 168.876 261.565 167.488C261.26 165.718 260.217 164.147 258.98 162.84C257.012 160.759 254.444 159.194 251.622 158.685C248.801 158.175 241.893 158.593 239.636 160.369C239.358 158.535 244.528 156.768 246.346 156.372C247.253 156.17 248.292 156.283 249.018 155.71C250.408 154.624 249.399 152.46 249.465 150.724C249.518 149.339 250.33 148.07 250.494 146.685C250.772 144.469 249.321 142.211 249.891 140.037C250.102 139.234 250.572 138.527 250.897 137.763C251.886 135.422 251.453 132.752 250.925 130.264C250.597 128.702 250.277 126.94 251.15 125.608C251.959 124.364 254.255 128.793 255.725 128.588C260.581 127.91 264.976 124.322 268.898 127.259C270.897 128.754 271.158 130.306 271.956 132.441C272.731 134.475 274.741 135.516 276.039 137.2Z" fill="black"/>
<path d="M276.873 137.2C278.413 139.211 278.741 141.909 278.574 144.427C278.408 146.945 277.807 149.436 277.718 151.965C277.596 155.433 278.435 158.89 278.294 162.347C278.194 164.765 277.618 167.136 276.937 169.457C276.134 172.197 274.972 175.142 272.434 176.457C269.065 178.205 261.999 177.222 258.455 178.59C258.777 176.587 261.868 173.687 262.191 171.685C262.413 170.3 262.638 168.876 262.399 167.488C262.094 165.718 261.051 164.147 259.814 162.84C257.846 160.76 255.278 159.194 252.456 158.685C249.635 158.175 242.727 158.593 240.47 160.369C240.192 158.535 245.362 156.768 247.18 156.372C248.087 156.17 249.126 156.283 249.852 155.71C251.242 154.624 250.232 152.46 250.299 150.724C250.352 149.339 251.164 148.07 251.328 146.685C251.606 144.469 250.155 142.211 250.724 140.037C250.936 139.234 251.405 138.527 251.731 137.763C252.72 135.422 252.287 132.752 251.759 130.264C251.431 128.702 251.111 126.94 251.984 125.608C252.793 124.364 254.374 123.893 255.845 123.685C260.768 123.022 265.757 124.304 269.743 127.259C271.742 128.754 272.003 130.306 272.801 132.441C273.565 134.475 275.575 135.516 276.873 137.2Z" fill="#1E1D27"/>
<path d="M92.9476 124.076L108.061 179.737C108.246 180.419 108.636 181.028 109.178 181.484C109.719 181.94 110.388 182.22 111.094 182.288L179.119 188.801C179.673 188.854 180.232 188.774 180.749 188.568C181.267 188.361 181.726 188.034 182.091 187.614C182.455 187.195 182.713 186.694 182.843 186.154C182.973 185.614 182.971 185.052 182.838 184.513L166.288 117.372C166.091 116.574 165.616 115.872 164.949 115.389C164.281 114.907 163.463 114.676 162.641 114.738L96.0414 119.702C95.53 119.742 95.0338 119.893 94.5879 120.146C94.1421 120.399 93.7578 120.746 93.4623 121.164C93.1668 121.582 92.9674 122.059 92.8785 122.563C92.7895 123.066 92.8131 123.583 92.9476 124.076Z" fill="#9C9CA1"/>
<path d="M227.795 134.937C231.924 134.937 235.272 131.558 235.272 127.389C235.272 123.22 231.924 119.84 227.795 119.84C223.665 119.84 220.317 123.22 220.317 127.389C220.317 131.558 223.665 134.937 227.795 134.937Z" fill="white"/>
<path d="M233.935 113.619C233.935 113.619 235.511 118.289 230.861 120.253L230.266 121.289L233.179 124.153C233.179 124.153 236.77 117.624 236.381 115.306C236.381 115.306 235.825 112.951 233.935 113.619Z" fill="white"/>
<path d="M228.654 134.937C232.636 134.937 235.864 131.72 235.864 127.752C235.864 123.783 232.636 120.566 228.654 120.566C224.671 120.566 221.443 123.783 221.443 127.752C221.443 131.72 224.671 134.937 228.654 134.937Z" fill="#2E2D3A"/>
<path d="M236.417 116.367L235.272 114.483L233.604 114.248C233.96 108.046 232.345 106.198 232.345 106.198L231.97 106.162L230.335 106.004L227.261 102.824V101.921C231.581 102.434 233.968 104.478 235.258 106.874C237.537 111.079 236.417 116.367 236.417 116.367Z" fill="#2E2D3A"/>
<path opacity="0.1" d="M231.984 105.021V106.162L230.349 106.004L227.275 102.824C227.275 102.824 232.031 103.885 231.984 105.021Z" fill="black" stroke="#4C4981" stroke-miterlimit="10"/>
<path opacity="0.1" d="M236.417 116.367L235.272 114.483V106.885C237.537 111.079 236.417 116.367 236.417 116.367Z" fill="black" stroke="#4C4981" stroke-miterlimit="10"/>
<path d="M215.329 130.705C217.248 129.602 217.165 125.88 215.145 122.393C213.125 118.906 209.932 116.974 208.013 118.078C206.095 119.181 206.177 122.903 208.197 126.39C210.218 129.877 213.411 131.809 215.329 130.705Z" fill="white"/>
<path d="M212.754 123.782C214.774 127.27 217.254 129.599 215.336 130.707C213.418 131.815 207.831 131.261 205.81 127.771C203.789 124.281 205.624 119.461 207.542 118.353C209.46 117.245 210.73 120.286 212.754 123.782Z" fill="#2E2D3A"/>
<path opacity="0.1" d="M230.747 98.658C230.747 109.802 223.094 120.541 211.911 120.541C206.541 120.541 201.39 118.415 197.592 114.631C193.794 110.846 191.661 105.714 191.661 100.362C191.661 95.0096 193.794 89.8768 197.592 86.0924C201.39 82.3079 206.541 80.1819 211.911 80.1819C223.094 80.1929 230.747 87.5114 230.747 98.658Z" fill="black"/>
<path d="M211.911 119.998C223.095 119.998 232.161 110.964 232.161 99.8186C232.161 88.6737 223.095 79.6389 211.911 79.6389C200.727 79.6389 191.661 88.6737 191.661 99.8186C191.661 110.964 200.727 119.998 211.911 119.998Z" fill="#FFB8B8"/>
<path d="M203.834 90.9475C206.642 89.8292 209.51 88.8667 212.426 88.0645C214.539 87.4833 216.764 86.9845 218.901 87.4392C222.123 88.1248 224.464 90.8154 226.222 93.5461C227.98 96.2769 229.476 99.2836 232.032 101.316C234.54 97.1906 234.035 92.0341 233.447 87.284C233.033 83.943 232.531 80.3948 230.315 77.8383C228.95 76.2638 227.062 75.2272 225.178 74.3009C216.183 69.8786 205.451 67.2422 196.037 70.8746L196.152 72.4002C194.479 72.7348 192.841 73.2209 191.257 73.8523L192.454 77.4266L187.358 78.9417L188.045 82.7962L182.856 84.181C183.297 85.6214 184.267 86.8468 185.578 87.6209C184.906 88.3762 184.086 88.9916 183.168 89.4299C184.809 92.5371 186.427 95.6578 188.095 98.7509C189.324 101.029 189.704 103.205 192.09 101.404C193.906 100.033 194.61 96.8431 196.382 95.183C198.471 93.2274 201.195 91.9987 203.834 90.9475Z" fill="#2F2E41"/>
<path opacity="0.05" d="M199.339 160.819C200.592 160.703 201.863 160.506 202.991 159.952C204.381 159.262 205.462 158.074 206.749 157.199C209.579 155.26 213.365 154.999 216.609 156.113C219.853 157.226 222.56 159.611 224.456 162.459C225.715 164.356 226.66 166.777 225.771 168.872C225.466 169.512 225.081 170.111 224.626 170.655L222.307 173.675C221.867 174.309 221.337 174.878 220.734 175.362C219.867 175.991 218.788 176.248 217.726 176.403C214.905 176.813 212.034 176.581 209.19 176.769C204.306 177.093 199.536 178.661 194.641 178.608C191.828 178.578 189.051 178.013 186.302 177.448L174.135 174.955C172.017 174.522 169.623 173.891 168.625 171.977C168.178 171.115 168.095 170.118 168.042 169.149C167.897 166.478 168.042 163.509 169.899 161.584C171.644 159.777 174.404 159.207 176.489 157.872C179.041 156.235 179.883 156.764 182.574 157.994C187.824 160.363 193.599 161.336 199.339 160.819Z" fill="#FFB8B8"/>
</g>
<defs>
<clipPath id="clip0">
<rect x="9" y="20" width="318" height="171" fill="white"/>
</clipPath>
</defs>
</svg>
